<svg xmlns="http://www.w3.org/2000/svg" width="32" height="32" viewBox="0 0 32 32" fill="none">
  <rect width="32" height="32" rx="16" fill="#18181B" />
  <path d="M16 8C11.5817 8 8 11.5817 8 16C8 20.4183 11.5817 24 16 24C20.4183 24 24 20.4183 24 16C24 11.5817 20.4183 8 16 8ZM13 12C13 11.4477 13.4477 11 14 11H18C18.5523 11 19 11.4477 19 12C19 12.5523 18.5523 13 18 13H14C13.4477 13 13 12.5523 13 12ZM12 16C12 15.4477 12.4477 15 13 15H19C19.5523 15 20 15.4477 20 16C20 16.5523 19.5523 17 19 17H13C12.4477 17 12 16.5523 12 16ZM13 20C13 19.4477 13.4477 19 14 19H18C18.5523 19 19 19.4477 19 20C19 20.5523 18.5523 21 18 21H14C13.4477 21 13 20.5523 13 20Z" fill="white" />
</svg>
